<svg width="40" height="40" viewBox="0 0 40 40" fill="none" xmlns="http://www.w3.org/2000/svg">
<g clip-path="url(#clip0_8_770)">
<path fill-rule="evenodd" clip-rule="evenodd" d="M34.1416 5.85825C41.9518 13.6685 41.9523 26.3316 34.1416 34.1423C26.3314 41.9525 13.6683 41.9525 5.8576 34.1418C-1.95261 26.3311 -1.95261 13.6685 5.85805 5.85825C13.6683 -1.95242 26.3314 -1.95242 34.1416 5.85825ZM25.7638 24.2894L21.474 20L25.7638 15.7102C26.7345 14.7396 25.2598 13.2654 24.2896 14.236L19.9998 18.5258L15.71 14.236C14.7394 13.2654 13.2652 14.74 14.2354 15.7102L18.5256 20L14.2358 24.2894C13.2652 25.26 14.7398 26.7342 15.7105 25.7636L19.9998 21.4742L24.2896 25.764C25.2598 26.7342 26.7345 25.26 25.7638 24.2894ZM37.9145 20C37.9145 10.1058 29.894 2.08535 19.9998 2.08535C10.106 2.08535 2.08517 10.1062 2.08517 20C2.08517 29.8942 10.1056 37.9147 19.9998 37.9147C29.8936 37.9147 37.9145 29.8938 37.9145 20Z" fill="black"/>
</g>
<defs>
<clipPath id="clip0_8_770">
<rect width="40" height="40" fill="white"/>
</clipPath>
</defs>
</svg>
