<svg width="35" height="35" viewBox="0 0 35 35" fill="none" xmlns="http://www.w3.org/2000/svg">
<g clip-path="url(#clip0_1_406)">
<path d="M17.5 35C27.165 35 35 27.165 35 17.5C35 7.83502 27.165 0 17.5 0C7.83502 0 0 7.83502 0 17.5C0 27.165 7.83502 35 17.5 35Z" fill="#00C2FF"/>
<path d="M17.5 35C27.165 35 35 27.165 35 17.5C35 7.83502 27.165 0 17.5 0C7.83502 0 0 7.83502 0 17.5C0 27.165 7.83502 35 17.5 35Z" fill="url(#paint0_linear_1_406)"/>
<g clip-path="url(#clip1_1_406)">
<path d="M23.6816 11.7871H11.3184C11.1154 11.7871 10.9254 11.837 10.7535 11.9192L17.4707 18.6364L18.9762 17.1895C18.9762 17.1895 18.9764 17.1894 18.9764 17.1893C18.9764 17.1892 18.9765 17.1892 18.9765 17.1892L24.2467 11.9194C24.0747 11.8371 23.8846 11.7871 23.6816 11.7871Z" fill="white"/>
<path d="M24.868 12.5408L19.9086 17.5L24.8679 22.4593C24.9501 22.2874 25 22.0974 25 21.8944V13.1054C25 12.9026 24.9502 12.7126 24.868 12.5408Z" fill="white"/>
<path d="M10.1321 12.5408C10.0499 12.7127 10 12.9026 10 13.1056V21.8946C10 22.0975 10.0498 22.2875 10.132 22.4593L15.0915 17.5001L10.1321 12.5408Z" fill="white"/>
<path d="M19.2872 18.1214L17.7814 19.5685C17.6956 19.6543 17.5831 19.6972 17.4707 19.6972C17.3583 19.6972 17.2458 19.6543 17.16 19.5685L15.7129 18.1213L10.7533 23.0806C10.9253 23.1629 11.1154 23.2128 11.3184 23.2128H23.6816C23.8846 23.2128 24.0746 23.1629 24.2465 23.0807L19.2872 18.1214Z" fill="white"/>
</g>
</g>
<defs>
<linearGradient id="paint0_linear_1_406" x1="-1.42723e-08" y1="17.5" x2="29.5503" y2="18.1472" gradientUnits="userSpaceOnUse">
<stop stop-color="#F48500"/>
<stop offset="1" stop-color="#F2BD35"/>
</linearGradient>
<clipPath id="clip0_1_406">
<rect width="35" height="35" fill="white"/>
</clipPath>
<clipPath id="clip1_1_406">
<rect width="15" height="15" fill="white" transform="translate(10 10)"/>
</clipPath>
</defs>
</svg>
