<svg width="40" height="40" viewBox="0 0 40 40" fill="none" xmlns="http://www.w3.org/2000/svg">
<rect width="40" height="40" fill="#F7B726"/>
<path d="M10.4167 10L10.6339 22.1943L20.012 30.4167L29.3663 22.2144L29.5834 10H10.4167Z" fill="#222222"/>
<path d="M10 10V22.489L20.0122 30.8333L30 22.5088V10H10ZM29.0028 22.0444L21.5634 28.2448L20.0122 29.5369L18.4609 28.2448L11.0216 22.0444V10.9817H29.0028V22.0444Z" fill="#CD8F01"/>
<path d="M21.6666 12.9169V25.3868L20.0055 27.0835L18.3422 25.3868V24.0507C18.9578 23.828 19.6585 23.5786 19.6585 23.5252V22.5142H18.3333V20.6037C18.9489 20.381 19.6496 20.1316 19.6496 20.0804V19.0561H18.3333V17.141C18.9489 16.9184 19.6496 16.669 19.6496 16.6156V15.6001H18.3333V12.928L21.6666 12.9169Z" fill="#F7B827"/>
<path d="M17.5001 12.9169H12.9167V16.2502L17.5001 12.9169Z" fill="#F7B827"/>
<path d="M22.5 12.9169H27.0833V16.2502L22.5 12.9169Z" fill="#F7B827"/>
<path opacity="0.3" d="M21.6666 15V16.4974L18.3333 17.9167V17.0191C18.9489 16.8017 19.6496 16.5583 19.6496 16.5061V15.8541L21.6666 15Z" fill="#222222"/>
<path d="M22.9167 15.6286L17.5 17.9169V16.4551L22.9167 14.1669V15.6286Z" fill="#F7B827"/>
<path opacity="0.3" d="M21.6666 18.3331V20.0445L18.3333 21.6665V20.6481C18.9489 20.3997 19.6496 20.1215 19.6496 20.0643V19.3192L21.6666 18.3331Z" fill="#222222"/>
<path d="M22.9167 18.9631L17.5 21.25V19.7869L22.9167 17.5V18.9631Z" fill="#F7B827"/>
<path opacity="0.3" d="M21.6666 22.0831V23.5795L18.3333 24.9998V24.1037C18.9489 23.8862 19.6496 23.6426 19.6496 23.5904V22.9379L21.6666 22.0831Z" fill="#222222"/>
<path d="M22.9167 22.4573L17.5 24.9998V23.3733L22.9167 20.8331V22.4573Z" fill="#F7B827"/>
</svg>
