<svg width="16" height="16" viewBox="0 0 16 16" fill="none" xmlns="http://www.w3.org/2000/svg">
<g clip-path="url(#clip0_1_96)">
<path d="M15.7443 7.37838L9.9661 1.60008C9.80116 1.43514 9.58132 1.3446 9.34692 1.3446C9.11225 1.3446 8.89255 1.43527 8.7276 1.60008L8.20299 2.12483C8.03818 2.28951 7.94738 2.50947 7.94738 2.74401C7.94738 2.97841 8.03818 3.20579 8.20299 3.37047L11.5739 6.74879H0.864383C0.381525 6.74879 0 7.1268 0 7.60979V8.35164C0 8.83462 0.381525 9.25075 0.864383 9.25075H11.6121L8.20312 12.6479C8.03831 12.8129 7.94751 13.0269 7.94751 13.2614C7.94751 13.4957 8.03831 13.7128 8.20312 13.8776L8.72773 14.4006C8.89268 14.5656 9.11238 14.6555 9.34705 14.6555C9.58145 14.6555 9.80129 14.5644 9.96623 14.3995L15.7444 8.62129C15.9097 8.45583 16.0007 8.23495 16 8.00016C16.0005 7.76458 15.9097 7.54358 15.7443 7.37838Z" fill="black"/>
</g>
<defs>
<clipPath id="clip0_1_96">
<rect width="16" height="16" fill="white"/>
</clipPath>
</defs>
</svg>
