<svg width="15" height="14" viewBox="0 0 15 14" fill="none" xmlns="http://www.w3.org/2000/svg">
<g clip-path="url(#clip0_13_100)">
<path d="M14.8361 5.36979C14.7382 5.08631 14.471 4.8856 14.1562 4.8588L9.86222 4.49189L8.16521 0.752571C8.03992 0.477847 7.75484 0.300537 7.43752 0.300537C7.1202 0.300537 6.83501 0.477847 6.71051 0.752571L5.01351 4.49189L0.718849 4.8588C0.40403 4.88614 0.137444 5.08684 0.0389358 5.36979C-0.0590054 5.65327 0.0314455 5.96421 0.269546 6.16074L3.51545 8.83951L2.55839 12.8068C2.48837 13.0985 2.60867 13.4001 2.86584 13.5751C3.00407 13.6696 3.16647 13.7168 3.32944 13.7168C3.46949 13.7168 3.60964 13.6818 3.73482 13.6113L7.43752 11.5276L11.1395 13.6113C11.4111 13.764 11.7526 13.75 12.0092 13.5751C12.2664 13.4001 12.3867 13.0985 12.3166 12.8068L11.3596 8.83951L14.6055 6.16074C14.8435 5.96421 14.934 5.65391 14.8361 5.36979Z" fill="#FFA800"/>
</g>
<defs>
<clipPath id="clip0_13_100">
<rect width="14.875" height="14" fill="white"/>
</clipPath>
</defs>
</svg>
