<svg width="35" height="35" viewBox="0 0 35 35" fill="none" xmlns="http://www.w3.org/2000/svg">
<g clip-path="url(#clip0_1_399)">
<path d="M17.5 35C27.165 35 35 27.165 35 17.5C35 7.83502 27.165 0 17.5 0C7.83502 0 0 7.83502 0 17.5C0 27.165 7.83502 35 17.5 35Z" fill="#00C2FF"/>
<mask id="mask0_1_399" style="mask-type:luminance" maskUnits="userSpaceOnUse" x="9" y="11" width="14" height="13">
<path d="M22.2727 11.1365H9.54545V23.8637H22.2727V11.1365Z" fill="white"/>
</mask>
<g mask="url(#mask0_1_399)">
<path d="M14.5394 19.1869L14.3289 22.1482C14.6301 22.1482 14.7605 22.0187 14.917 21.8634L16.3292 20.5137L19.2554 22.6567C19.7921 22.9558 20.1702 22.7983 20.315 22.163L22.2357 13.1627C22.406 12.3694 21.9494 12.0586 21.4264 12.2532L10.1363 16.5757C9.36576 16.8748 9.37745 17.3043 10.0053 17.499L12.8918 18.3968L19.5964 14.2016C19.9119 13.9926 20.1988 14.1082 19.9628 14.3171L14.5394 19.1869Z" fill="white"/>
</g>
</g>
<defs>
<clipPath id="clip0_1_399">
<rect width="35" height="35" fill="white"/>
</clipPath>
</defs>
</svg>
